<svg width="184" height="44" viewBox="0 0 184 44" fill="none" xmlns="http://www.w3.org/2000/svg">
<g clip-path="url(#clip0_1489_1323)">
<g clip-path="url(#clip1_1489_1323)">
<mask id="mask0_1489_1323" style="mask-type:luminance" maskUnits="userSpaceOnUse" x="-1" y="0" width="56" height="44">
<path d="M50.883 20.2191C49.8967 20.2191 49.106 21.0176 49.106 21.9961C49.106 22.9746 49.9045 23.7731 50.883 23.7731C51.8616 23.7731 52.66 22.9746 52.66 21.9961C52.66 21.0176 51.8616 20.2191 50.883 20.2191ZM50.883 18.082C53.0436 18.082 54.7971 19.8355 54.7971 21.9961C54.7971 24.1567 53.0436 25.9102 50.883 25.9102C48.7225 25.9102 46.9689 24.1567 46.9689 21.9961C46.9689 19.8355 48.7225 18.082 50.883 18.082ZM3.91396 20.2191C2.9276 20.2191 2.13696 21.0176 2.13696 21.9961C2.13696 22.9746 2.93543 23.7731 3.91396 23.7731C4.89248 23.7731 5.69095 22.9746 5.69095 21.9961C5.69095 21.0176 4.89248 20.2191 3.91396 20.2191ZM3.91396 18.082C6.07453 18.082 7.82804 19.8355 7.82804 21.9961C7.82804 24.1567 6.07453 25.9102 3.91396 25.9102C1.75338 25.9102 -0.000133514 24.1567 -0.000133514 21.9961C-0.000133514 19.8355 1.75338 18.082 3.91396 18.082ZM34.8274 32.3762V28.0942C34.8274 27.2331 34.3421 26.4738 33.6062 26.0354C32.1345 25.1587 31.1795 23.5147 31.3204 21.6516C31.4926 19.2719 33.5436 17.3383 35.9312 17.307C38.5536 17.2679 40.6986 19.3893 40.6986 22.0039C40.6986 23.7183 39.7748 25.2213 38.3971 26.0354C37.6691 26.466 37.1759 27.2175 37.1759 28.0629V32.3449C37.1759 33.206 37.6612 33.9654 38.3971 34.4037C39.8688 35.2805 40.8238 36.9244 40.6829 38.7875C40.5107 41.1673 38.4597 43.1009 36.0721 43.1322C33.4497 43.1713 31.3048 41.0499 31.3048 38.4353C31.3048 36.7209 32.2285 35.2179 33.6062 34.4037C34.3343 33.9732 34.8274 33.2217 34.8274 32.3762ZM38.3579 21.9961C38.3579 20.6966 37.309 19.6476 36.0095 19.6476C34.71 19.6476 33.661 20.6966 33.661 21.9961C33.661 23.2956 34.71 24.3445 36.0095 24.3445C37.309 24.3445 38.3579 23.2956 38.3579 21.9961ZM36.0095 40.7837C37.6847 40.7837 38.9529 39.0224 38.0683 37.2532C37.7082 36.533 36.9489 36.0868 36.1426 36.0868C34.8744 36.0868 33.7315 37.0418 33.661 38.31C33.5906 39.6643 34.6709 40.7837 36.0095 40.7837ZM14.0984 22.3092C13.981 20.4304 14.9752 18.763 16.486 17.9098C17.2532 17.4792 17.762 16.7042 17.762 15.8196V11.6472C17.762 10.7861 17.2767 10.0268 16.5408 9.58842C15.0769 8.71949 14.1219 7.06774 14.255 5.21247C14.4194 2.92664 16.3138 1.03222 18.5996 0.867827C20.4549 0.734748 22.0988 1.68979 22.9756 3.15365C23.4139 3.8895 24.1733 4.37485 25.0344 4.37485H29.2929C30.154 4.37485 30.9133 3.8895 31.3517 3.15365C32.2128 1.69761 33.8646 0.742576 35.7198 0.875655C38.0996 1.04787 40.0332 3.09886 40.0723 5.48645C40.1115 8.10889 37.99 10.2538 35.3754 10.2538C33.661 10.2538 32.158 9.33009 31.3439 7.95233C30.9133 7.22431 30.1618 6.73113 29.3164 6.73113H25.1205C24.2672 6.73113 23.4374 7.14603 23.0069 7.8897C22.5763 8.63338 21.9971 9.20484 21.2769 9.61973C20.5567 10.0346 20.1183 10.8801 20.1183 11.7333V16.0075C20.1183 16.8373 20.588 17.5732 21.2925 18.0194C22.6155 18.8492 23.4922 20.3209 23.4922 21.9961C23.4922 24.6107 21.3473 26.7321 18.7249 26.693C16.3216 26.6538 14.2628 24.7046 14.1062 22.3014L14.0984 22.3092ZM34.4439 7.73314C36.2522 8.43768 37.9665 6.96598 37.6925 5.19681C37.5438 4.22612 36.761 3.42764 35.7981 3.25542C34.3108 2.99709 33.027 4.12435 33.027 5.56473C33.027 6.51194 33.5671 7.39653 34.4439 7.74097V7.73314ZM21.1046 6.48846C21.8092 4.67232 20.3375 2.96578 18.5605 3.23976C17.5898 3.3885 16.7913 4.17132 16.6191 5.13418C16.3608 6.62154 17.4958 7.90536 18.9284 7.90536C19.8678 7.90536 20.7524 7.36522 21.0968 6.48846H21.1046ZM21.089 22.4579C21.4021 20.8062 19.9774 19.3815 18.3256 19.6946C17.4097 19.8668 16.6582 20.6183 16.4782 21.542C16.1651 23.1938 17.5898 24.6185 19.2415 24.3054C20.1574 24.1332 20.9089 23.3817 21.089 22.4579ZM27.0854 8.70383C28.9641 8.58641 30.6315 9.58059 31.4848 11.0914C31.9154 11.8586 32.6903 12.3674 33.5749 12.3674H37.7473C38.6084 12.3674 39.3678 11.8821 39.8062 11.1462C40.6751 9.68236 42.3268 8.72732 44.1821 8.8604C46.4679 9.02479 48.3624 10.9192 48.5267 13.205C48.6598 15.0603 47.7048 16.7042 46.2409 17.581C45.5051 18.0194 45.0197 18.7787 45.0197 19.6398V23.8983C45.0197 24.7594 45.5051 25.5188 46.2409 25.9571C47.7126 26.8339 48.6677 28.4778 48.5267 30.3409C48.3545 32.7207 46.3035 34.6542 43.9159 34.6934C41.2935 34.7325 39.1486 32.6111 39.1486 29.9965C39.1486 28.2821 40.0723 26.7791 41.4501 25.965C42.1781 25.5344 42.6713 24.7829 42.6713 23.9375V19.7416C42.6713 18.8883 42.2564 18.0585 41.5127 17.628C40.769 17.1974 40.1976 16.6181 39.7827 15.8979C39.3678 15.1777 38.5223 14.7394 37.6691 14.7394H33.3949C32.5651 14.7394 31.8292 15.2091 31.383 15.9136C30.5532 17.2365 29.0816 18.1133 27.4063 18.1133C24.7917 18.1133 22.6703 15.9684 22.7094 13.3459C22.7486 10.9427 24.6978 8.88388 27.101 8.72732L27.0854 8.70383ZM41.6614 29.0493C40.9569 30.8576 42.4286 32.572 44.1978 32.298C45.1685 32.1492 45.9669 31.3664 46.1392 30.4035C46.3975 28.9162 45.2702 27.6324 43.8298 27.6324C42.8905 27.6324 42.0059 28.1725 41.6614 29.0493ZM42.9061 15.7101C44.7223 16.4146 46.4288 14.9429 46.1548 13.1659C46.0061 12.1952 45.2233 11.3967 44.2604 11.2245C42.773 10.9662 41.4892 12.1013 41.4892 13.5338C41.4892 14.481 42.0294 15.3656 42.9061 15.7022V15.7101ZM26.9366 15.6944C28.5884 16.0075 30.0131 14.5828 29.7 12.9311C29.5278 12.0152 28.7763 11.2636 27.8525 11.0836C26.2008 10.7705 24.7761 12.1952 25.0892 13.8469C25.2614 14.7628 26.0129 15.5143 26.9366 15.6944ZM27.7038 35.2962C25.825 35.4136 24.1576 34.4194 23.3044 32.9086C22.8738 32.1414 22.0988 31.6326 21.2142 31.6326H17.0418C16.1807 31.6326 15.4214 32.1179 14.983 32.8538C14.1141 34.3176 12.4623 35.2727 10.607 35.1396C8.32122 34.9752 6.4268 33.0808 6.26241 30.795C6.12933 28.9397 7.08437 27.2958 8.54824 26.419C9.28408 25.9806 9.76943 25.2213 9.76943 24.3602V20.1017C9.76943 19.2406 9.28408 18.4812 8.54824 18.0429C7.07654 17.1661 6.1215 15.5222 6.26241 13.6591C6.43463 11.2793 8.48561 9.34574 10.8732 9.3066C13.4956 9.26746 15.6406 11.3889 15.6406 14.0035C15.6406 15.7179 14.7168 17.2209 13.3391 18.035C12.6111 18.4656 12.1179 19.2171 12.1179 20.0625V24.2584C12.1179 25.1117 12.5328 25.9415 13.2765 26.372C14.0201 26.8026 14.5916 27.3819 15.0065 28.1021C15.4214 28.8223 16.2668 29.2606 17.1201 29.2606H21.3943C22.2241 29.2606 22.9599 28.7909 23.4061 28.0864C24.2359 26.7634 25.7076 25.8867 27.3828 25.8867C29.9974 25.8867 32.1189 28.0316 32.0797 30.654C32.0406 33.0573 30.0914 35.1161 27.6881 35.2727L27.7038 35.2962ZM13.1277 14.9507C13.8323 13.1424 12.3606 11.428 10.5914 11.702C9.6207 11.8508 8.82222 12.6336 8.65 13.5964C8.39167 15.0838 9.51893 16.3676 10.9593 16.3676C11.8987 16.3676 12.7833 15.8275 13.1277 14.9507ZM11.883 28.2899C10.0669 27.5854 8.36036 29.0571 8.63435 30.8341C8.78308 31.8048 9.5659 32.6033 10.5288 32.7755C12.0161 33.0338 13.2999 31.8987 13.2999 30.4662C13.2999 29.519 12.7598 28.6344 11.883 28.2978V28.2899ZM27.8525 28.3056C26.2008 27.9925 24.7761 29.4172 25.0892 31.0689C25.2614 31.9848 26.0129 32.7363 26.9366 32.9164C28.5884 33.2295 30.0131 31.8048 29.7 30.153C29.5278 29.2372 28.7763 28.4856 27.8525 28.3056Z" fill="white"/>
</mask>
<g mask="url(#mask0_1489_1323)">
<path d="M0.0938606 0.766068H54.8911V43.2339H0.0938606V0.766068Z" fill="url(#paint0_linear_1489_1323)"/>
</g>
</g>
<path d="M173.936 36.8638L175.169 35.3568C175.778 35.8287 176.395 36.194 177.019 36.4528C177.658 36.6963 178.305 36.8181 178.959 36.8181C179.781 36.8181 180.451 36.6583 180.969 36.3386C181.486 36.019 181.745 35.6004 181.745 35.0829C181.745 34.6719 181.593 34.3446 181.288 34.1011C180.984 33.8575 180.512 33.6901 179.873 33.5988L177.772 33.3019C176.63 33.1345 175.763 32.7844 175.169 32.2517C174.591 31.7037 174.302 30.9807 174.302 30.0826C174.302 29.0323 174.72 28.1875 175.557 27.5482C176.395 26.8937 177.49 26.5665 178.845 26.5665C179.698 26.5665 180.504 26.6882 181.265 26.9318C182.042 27.1753 182.795 27.5482 183.526 28.0505L182.361 29.5575C181.722 29.1313 181.098 28.8268 180.489 28.6442C179.895 28.4463 179.294 28.3474 178.685 28.3474C177.985 28.3474 177.422 28.492 176.996 28.7812C176.57 29.0704 176.356 29.4509 176.356 29.9228C176.356 30.349 176.501 30.6762 176.79 30.9046C177.095 31.1177 177.589 31.2775 178.274 31.384L180.375 31.6809C181.517 31.8483 182.384 32.206 182.978 32.754C183.587 33.3019 183.891 34.025 183.891 34.923C183.891 35.4406 183.762 35.9276 183.503 36.3843C183.259 36.8257 182.917 37.2063 182.476 37.5259C182.049 37.8456 181.539 38.1043 180.946 38.3022C180.352 38.4849 179.713 38.5762 179.028 38.5762C178.023 38.5762 177.08 38.4316 176.197 38.1424C175.329 37.8532 174.576 37.427 173.936 36.8638Z" fill="white"/>
<path d="M168.562 36.5669C169.141 36.5669 169.689 36.4528 170.206 36.2245C170.724 35.9809 171.218 35.6232 171.69 35.1514L173.06 36.6354C172.451 37.2443 171.751 37.7238 170.96 38.0739C170.168 38.4087 169.338 38.5762 168.471 38.5762C167.634 38.5762 166.85 38.424 166.119 38.1195C165.388 37.7999 164.757 37.3737 164.224 36.8409C163.691 36.3082 163.265 35.6765 162.945 34.9459C162.641 34.2 162.489 33.4009 162.489 32.5485C162.489 31.7113 162.641 30.9274 162.945 30.1968C163.265 29.4509 163.691 28.8116 164.224 28.2789C164.757 27.7309 165.388 27.3047 166.119 27.0003C166.85 26.6806 167.634 26.5208 168.471 26.5208C169.338 26.5208 170.183 26.6958 171.005 27.0459C171.827 27.3808 172.543 27.8527 173.151 28.4615L171.713 30.0141C171.272 29.5422 170.777 29.1845 170.229 28.941C169.681 28.6822 169.11 28.5528 168.516 28.5528C167.466 28.5528 166.576 28.941 165.845 29.7173C165.114 30.4936 164.749 31.4373 164.749 32.5485C164.749 33.6901 165.114 34.649 165.845 35.4253C166.591 36.1864 167.497 36.5669 168.562 36.5669Z" fill="white"/>
<path d="M159.184 24.8769C158.803 24.8769 158.476 24.7399 158.202 24.4659C157.928 24.1767 157.791 23.8418 157.791 23.4613C157.791 23.0807 157.928 22.7535 158.202 22.4795C158.476 22.1903 158.803 22.0457 159.184 22.0457C159.564 22.0457 159.891 22.1903 160.165 22.4795C160.455 22.7535 160.599 23.0807 160.599 23.4613C160.599 23.8418 160.455 24.1767 160.165 24.4659C159.891 24.7399 159.564 24.8769 159.184 24.8769ZM160.325 26.7491V38.3707H158.042V26.7491H160.325Z" fill="white"/>
<path d="M150.674 35.4938V28.667H148.208V26.7491H150.674V23.7809L152.935 23.2329V26.7491H156.36V28.667H152.935V34.9687C152.935 35.5623 153.064 35.9809 153.323 36.2245C153.597 36.468 154.038 36.5898 154.647 36.5898C154.967 36.5898 155.248 36.5746 155.492 36.5441C155.751 36.4984 156.025 36.4223 156.314 36.3158V38.2337C156.01 38.3402 155.652 38.424 155.241 38.4848C154.845 38.5457 154.48 38.5762 154.145 38.5762C153.018 38.5762 152.158 38.3174 151.565 37.7999C150.971 37.2671 150.674 36.4984 150.674 35.4938Z" fill="white"/>
<path d="M137.681 36.8638L138.914 35.3568C139.523 35.8287 140.14 36.194 140.764 36.4528C141.403 36.6963 142.05 36.8181 142.704 36.8181C143.526 36.8181 144.196 36.6583 144.714 36.3386C145.231 36.019 145.49 35.6004 145.49 35.0829C145.49 34.6719 145.338 34.3446 145.033 34.1011C144.729 33.8575 144.257 33.6901 143.618 33.5988L141.517 33.3019C140.376 33.1345 139.508 32.7844 138.914 32.2517C138.336 31.7037 138.047 30.9807 138.047 30.0826C138.047 29.0323 138.465 28.1875 139.302 27.5482C140.14 26.8937 141.236 26.5665 142.59 26.5665C143.443 26.5665 144.249 26.6882 145.011 26.9318C145.787 27.1753 146.54 27.5482 147.271 28.0505L146.106 29.5575C145.467 29.1313 144.843 28.8268 144.234 28.6442C143.641 28.4463 143.039 28.3474 142.43 28.3474C141.73 28.3474 141.167 28.492 140.741 28.7812C140.315 29.0704 140.102 29.4509 140.102 29.9228C140.102 30.349 140.246 30.6762 140.535 30.9046C140.84 31.1177 141.335 31.2775 142.02 31.384L144.12 31.6809C145.262 31.8483 146.129 32.206 146.723 32.754C147.332 33.3019 147.636 34.025 147.636 34.923C147.636 35.4406 147.507 35.9276 147.248 36.3843C147.005 36.8257 146.662 37.2063 146.221 37.5259C145.794 37.8456 145.285 38.1043 144.691 38.3022C144.097 38.4849 143.458 38.5762 142.773 38.5762C141.768 38.5762 140.825 38.4316 139.942 38.1424C139.074 37.8532 138.321 37.427 137.681 36.8638Z" fill="white"/>
<path d="M124.54 32.5485C124.54 31.7113 124.692 30.9274 124.996 30.1968C125.316 29.4509 125.75 28.8116 126.298 28.2789C126.846 27.7309 127.485 27.3047 128.216 27.0003C128.961 26.6806 129.753 26.5208 130.59 26.5208C131.427 26.5208 132.211 26.6806 132.942 27.0003C133.688 27.3047 134.327 27.7309 134.86 28.2789C135.408 28.8116 135.834 29.4509 136.138 30.1968C136.458 30.9274 136.618 31.7113 136.618 32.5485C136.618 33.4009 136.458 34.2 136.138 34.9459C135.834 35.6765 135.408 36.3158 134.86 36.8638C134.327 37.3965 133.688 37.8227 132.942 38.1424C132.211 38.4468 131.427 38.599 130.59 38.599C129.753 38.599 128.961 38.4468 128.216 38.1424C127.485 37.8227 126.846 37.3965 126.298 36.8638C125.75 36.3158 125.316 35.6765 124.996 34.9459C124.692 34.2 124.54 33.4009 124.54 32.5485ZM130.59 36.5898C131.64 36.5898 132.531 36.2016 133.261 35.4253C134.007 34.6338 134.38 33.6749 134.38 32.5485C134.38 31.4221 134.007 30.4708 133.261 29.6945C132.531 28.9182 131.64 28.53 130.59 28.53C129.54 28.53 128.642 28.9182 127.896 29.6945C127.15 30.4708 126.777 31.4221 126.777 32.5485C126.777 33.6749 127.142 34.6338 127.873 35.4253C128.619 36.2016 129.525 36.5898 130.59 36.5898Z" fill="white"/>
<path d="M112.11 38.3707V26.7491H114.393V27.9135C114.85 27.4569 115.367 27.1144 115.946 26.8861C116.539 26.6426 117.186 26.5208 117.886 26.5208C119.211 26.5208 120.299 26.947 121.151 27.7994C122.004 28.6366 122.43 29.7249 122.43 31.0644V38.3707H120.147V31.4525C120.147 30.5392 119.88 29.8238 119.348 29.3063C118.83 28.7736 118.138 28.5072 117.27 28.5072C116.661 28.5072 116.105 28.6366 115.603 28.8953C115.116 29.1541 114.713 29.527 114.393 30.0141V38.3707H112.11Z" fill="white"/>
<path d="M103.672 38.462C102.866 38.462 102.105 38.3098 101.389 38.0054C100.674 37.6857 100.05 37.2595 99.517 36.7268C98.9994 36.194 98.5885 35.5623 98.284 34.8317C97.9796 34.1011 97.8274 33.3248 97.8274 32.5028C97.8274 31.6809 97.9796 30.9046 98.284 30.1739C98.5885 29.4433 98.9994 28.8116 99.517 28.2789C100.05 27.7461 100.674 27.3275 101.389 27.0231C102.12 26.7034 102.896 26.5436 103.718 26.5436C104.342 26.5436 104.943 26.6425 105.522 26.8404C106.115 27.0383 106.663 27.3275 107.166 27.7081V26.7491H109.426V38.5305C109.426 40.0374 108.962 41.1943 108.033 42.001C107.12 42.823 105.811 43.2339 104.106 43.2339C103.269 43.2339 102.439 43.135 101.618 42.9371C100.811 42.7392 100.08 42.4576 99.4256 42.0923L100.316 40.3114C100.971 40.6463 101.602 40.8974 102.211 41.0649C102.82 41.2323 103.429 41.316 104.038 41.316C105.042 41.316 105.811 41.0801 106.344 40.6082C106.877 40.1364 107.143 39.4438 107.143 38.5305V37.2291C106.656 37.6248 106.115 37.9293 105.522 38.1424C104.928 38.3555 104.312 38.462 103.672 38.462ZM100.065 32.5028C100.065 33.614 100.438 34.5577 101.184 35.334C101.93 36.0951 102.85 36.4756 103.946 36.4756C104.601 36.4756 105.202 36.3615 105.75 36.1331C106.298 35.8896 106.762 35.5547 107.143 35.1285V29.8771C106.778 29.4509 106.313 29.1236 105.75 28.8953C105.202 28.6518 104.601 28.53 103.946 28.53C102.85 28.53 101.93 28.9182 101.184 29.6945C100.438 30.4555 100.065 31.3916 100.065 32.5028Z" fill="white"/>
<path d="M89.8766 38.5762C88.6132 38.5762 87.5857 38.2489 86.7942 37.5944C86.0027 36.9399 85.6069 36.0875 85.6069 35.0372C85.6069 33.9412 86.0255 33.0812 86.8627 32.4572C87.6999 31.8179 88.8491 31.4982 90.3104 31.4982C90.8736 31.4982 91.4215 31.5591 91.9543 31.6809C92.487 31.7874 92.997 31.9396 93.484 32.1375V30.9046C93.484 30.0826 93.2405 29.4661 92.7534 29.0552C92.2663 28.6442 91.5661 28.4387 90.6528 28.4387C90.1201 28.4387 89.5645 28.5224 88.9861 28.6898C88.4077 28.8421 87.7608 29.0856 87.0454 29.4205L86.2006 27.7081C87.0682 27.2971 87.8902 27.0003 88.6664 26.8176C89.4427 26.6197 90.2114 26.5208 90.9725 26.5208C92.4794 26.5208 93.6439 26.8861 94.4658 27.6167C95.303 28.3321 95.7216 29.352 95.7216 30.6762V38.3707H93.484V37.3661C92.9665 37.7771 92.4109 38.0815 91.8173 38.2794C91.2237 38.4772 90.5767 38.5762 89.8766 38.5762ZM87.7988 34.9915C87.7988 35.5547 88.0348 36.0114 88.5066 36.3615C88.9937 36.7116 89.6254 36.8866 90.4017 36.8866C91.0106 36.8866 91.5737 36.7953 92.0913 36.6126C92.6088 36.43 93.0731 36.156 93.484 35.7907V33.7814C93.0426 33.5379 92.5784 33.3628 92.0913 33.2563C91.6042 33.1345 91.0714 33.0736 90.493 33.0736C89.6711 33.0736 89.0165 33.2487 88.5295 33.5988C88.0424 33.9489 87.7988 34.4131 87.7988 34.9915Z" fill="white"/>
<path d="M82.3701 24.8769C81.9895 24.8769 81.6623 24.7399 81.3883 24.4659C81.1143 24.1767 80.9773 23.8418 80.9773 23.4613C80.9773 23.0807 81.1143 22.7535 81.3883 22.4795C81.6623 22.1903 81.9895 22.0457 82.3701 22.0457C82.7506 22.0457 83.0779 22.1903 83.3518 22.4795C83.6411 22.7535 83.7857 23.0807 83.7857 23.4613C83.7857 23.8418 83.6411 24.1767 83.3518 24.4659C83.0779 24.7399 82.7506 24.8769 82.3701 24.8769ZM83.5117 26.7491V38.3707H81.2284V26.7491H83.5117Z" fill="white"/>
<path d="M64.8911 38.3707V22.3882H70.5307C71.7332 22.3882 72.8443 22.5936 73.8642 23.0046C74.8992 23.4004 75.7897 23.956 76.5355 24.6714C77.2966 25.3716 77.8902 26.2163 78.3164 27.2057C78.7426 28.1951 78.9557 29.2606 78.9557 30.4023C78.9557 31.5439 78.7426 32.6018 78.3164 33.5759C77.8902 34.5501 77.3042 35.3949 76.5584 36.1103C75.8125 36.8105 74.9221 37.3661 73.887 37.777C72.8519 38.1728 71.7332 38.3707 70.5307 38.3707H64.8911ZM70.5763 24.5344H67.2885V36.2245H70.5763C71.3983 36.2245 72.1746 36.0799 72.9052 35.7907C73.6358 35.4862 74.2599 35.0752 74.7775 34.5577C75.3102 34.025 75.7288 33.4085 76.0332 32.7083C76.3377 31.9929 76.4899 31.2242 76.4899 30.4023C76.4899 29.5803 76.3377 28.8116 76.0332 28.0962C75.7288 27.3656 75.3102 26.7415 74.7775 26.224C74.2599 25.6912 73.6358 25.2802 72.9052 24.991C72.1746 24.6866 71.3983 24.5344 70.5763 24.5344Z" fill="white"/>
<path d="M115.173 17.2509V16.155C114.686 16.5659 114.138 16.8856 113.529 17.1139C112.92 17.327 112.281 17.4336 111.611 17.4336C110.789 17.4336 110.02 17.2814 109.305 16.9769C108.589 16.6573 107.965 16.2311 107.433 15.6983C106.915 15.1656 106.504 14.5339 106.2 13.8032C105.895 13.0574 105.743 12.2659 105.743 11.4287C105.743 10.5915 105.895 9.80762 106.2 9.07699C106.504 8.34636 106.915 7.71466 107.433 7.18191C107.965 6.64916 108.597 6.23057 109.328 5.92614C110.058 5.60649 110.834 5.44667 111.656 5.44667C112.296 5.44667 112.912 5.54561 113.506 5.74349C114.099 5.94137 114.647 6.22296 115.15 6.58828V1.26838L117.433 0.766068V17.2509H115.173ZM107.98 11.4059C107.98 12.5475 108.361 13.5064 109.122 14.2827C109.883 15.059 110.819 15.4472 111.93 15.4472C112.585 15.4472 113.186 15.3254 113.734 15.0819C114.297 14.8383 114.769 14.4958 115.15 14.0544V8.78017C114.769 8.35397 114.297 8.01909 113.734 7.77555C113.171 7.53201 112.57 7.41023 111.93 7.41023C110.819 7.41023 109.883 7.79077 109.122 8.55185C108.361 9.31292 107.98 10.2643 107.98 11.4059Z" fill="white"/>
<path d="M97.7921 17.4564C96.5287 17.4564 95.5013 17.1291 94.7097 16.4746C93.9182 15.8201 93.5225 14.9677 93.5225 13.9174C93.5225 12.8215 93.9411 11.9615 94.7782 11.3374C95.6154 10.6981 96.7646 10.3784 98.2259 10.3784C98.7891 10.3784 99.3371 10.4393 99.8698 10.5611C100.403 10.6676 100.912 10.8198 101.4 11.0177V9.78478C101.4 8.96282 101.156 8.34635 100.669 7.93537C100.182 7.52439 99.4817 7.31891 98.5684 7.31891C98.0356 7.31891 97.48 7.40262 96.9016 7.57006C96.3232 7.72227 95.6763 7.96582 94.9609 8.30069L94.1161 6.58828C94.9837 6.1773 95.8057 5.88048 96.582 5.69782C97.3583 5.49994 98.127 5.401 98.888 5.401C100.395 5.401 101.559 5.76632 102.381 6.49695C103.219 7.21236 103.637 8.23219 103.637 9.55646V17.2509H101.4V16.2463C100.882 16.6573 100.326 16.9617 99.7328 17.1596C99.1392 17.3575 98.4923 17.4564 97.7921 17.4564ZM95.7144 13.8717C95.7144 14.4349 95.9503 14.8916 96.4222 15.2417C96.9092 15.5918 97.5409 15.7668 98.3172 15.7668C98.9261 15.7668 99.4893 15.6755 100.007 15.4928C100.524 15.3102 100.989 15.0362 101.4 14.6709V12.6616C100.958 12.4181 100.494 12.243 100.007 12.1365C99.5197 12.0147 98.987 11.9538 98.4086 11.9538C97.5866 11.9538 96.9321 12.1289 96.445 12.479C95.9579 12.8291 95.7144 13.2933 95.7144 13.8717Z" fill="white"/>
<path d="M91.2306 15.9266C90.5609 16.4442 89.8607 16.8323 89.13 17.0911C88.3994 17.3346 87.6003 17.4564 86.7327 17.4564C85.8803 17.4564 85.0811 17.3042 84.3353 16.9998C83.5894 16.6801 82.9425 16.2539 82.3946 15.7212C81.8466 15.1884 81.4128 14.5567 81.0931 13.8261C80.7887 13.0802 80.6365 12.2811 80.6365 11.4287C80.6365 10.5915 80.7887 9.80762 81.0931 9.07699C81.3975 8.34636 81.8085 7.71467 82.3261 7.18192C82.8436 6.64917 83.4601 6.23058 84.1755 5.92615C84.8909 5.6065 85.6519 5.44667 86.4587 5.44667C87.2502 5.44667 87.9884 5.6065 88.6734 5.92615C89.3736 6.23058 89.9672 6.65678 90.4543 7.20475C90.9566 7.7375 91.3524 8.3768 91.6416 9.12265C91.9308 9.8685 92.0754 10.6676 92.0754 11.52V12.1822H82.8969C83.0491 13.1411 83.4905 13.9402 84.2211 14.5795C84.9518 15.2036 85.8194 15.5157 86.824 15.5157C87.3872 15.5157 87.9276 15.4243 88.4451 15.2417C88.9626 15.059 89.404 14.8079 89.7694 14.4882L91.2306 15.9266ZM86.413 7.36457C85.5454 7.36457 84.7843 7.65378 84.1298 8.2322C83.4905 8.81061 83.0871 9.55646 82.9197 10.4698H89.815C89.6476 9.58691 89.2442 8.84867 88.6049 8.25503C87.9808 7.66139 87.2502 7.36457 86.413 7.36457Z" fill="white"/>
<path d="M64.8911 17.2509V1.26837H67.2885V8.11803H75.7821V1.26837H78.1795V17.2509H75.7821V10.2871H67.2885V17.2509H64.8911Z" fill="white"/>
</g>
<defs>
<linearGradient id="paint0_linear_1489_1323" x1="11.4447" y1="-5.78612" x2="43.5403" y2="49.7861" gradientUnits="userSpaceOnUse">
<stop stop-color="#22FFCC" stop-opacity="0.992157"/>
<stop offset="1" stop-color="#6276B7"/>
</linearGradient>
<clipPath id="clip0_1489_1323">
<rect y="0.766068" width="183.891" height="42.4679" rx="10" fill="white"/>
</clipPath>
<clipPath id="clip1_1489_1323">
<rect width="54.8912" height="42.4679" fill="white" transform="matrix(-1 0 0 1 54.8911 0.766068)"/>
</clipPath>
</defs>
</svg>
