<svg width="184" height="43" viewBox="0 0 184 43" fill="none" xmlns="http://www.w3.org/2000/svg">
<g clip-path="url(#clip0_1489_818)">
<g clip-path="url(#clip1_1489_818)">
<mask id="mask0_1489_818" style="mask-type:luminance" maskUnits="userSpaceOnUse" x="-1" y="0" width="56" height="43">
<path d="M50.883 19.4534C49.8967 19.4534 49.106 20.2519 49.106 21.2304C49.106 22.209 49.9045 23.0074 50.883 23.0074C51.8616 23.0074 52.66 22.209 52.66 21.2304C52.66 20.2519 51.8616 19.4534 50.883 19.4534ZM50.883 17.3164C53.0436 17.3164 54.7971 19.0699 54.7971 21.2304C54.7971 23.391 53.0436 25.1445 50.883 25.1445C48.7225 25.1445 46.9689 23.391 46.9689 21.2304C46.9689 19.0699 48.7225 17.3164 50.883 17.3164ZM3.91396 19.4534C2.9276 19.4534 2.13696 20.2519 2.13696 21.2304C2.13696 22.209 2.93543 23.0074 3.91396 23.0074C4.89248 23.0074 5.69095 22.209 5.69095 21.2304C5.69095 20.2519 4.89248 19.4534 3.91396 19.4534ZM3.91396 17.3164C6.07453 17.3164 7.82804 19.0699 7.82804 21.2304C7.82804 23.391 6.07453 25.1445 3.91396 25.1445C1.75338 25.1445 -0.000133514 23.391 -0.000133514 21.2304C-0.000133514 19.0699 1.75338 17.3164 3.91396 17.3164ZM34.8274 31.6106V27.3286C34.8274 26.4675 34.3421 25.7082 33.6062 25.2698C32.1345 24.393 31.1795 22.7491 31.3204 20.886C31.4926 18.5062 33.5436 16.5727 35.9312 16.5414C38.5536 16.5022 40.6986 18.6237 40.6986 21.2383C40.6986 22.9526 39.7748 24.4557 38.3971 25.2698C37.6691 25.7003 37.1759 26.4518 37.1759 27.2973V31.5793C37.1759 32.4404 37.6612 33.1997 38.3971 33.6381C39.8688 34.5149 40.8238 36.1588 40.6829 38.0219C40.5107 40.4017 38.4597 42.3352 36.0721 42.3665C33.4497 42.4057 31.3048 40.2842 31.3048 37.6696C31.3048 35.9552 32.2285 34.4522 33.6062 33.6381C34.3343 33.2076 34.8274 32.4561 34.8274 31.6106ZM38.3579 21.2304C38.3579 19.931 37.309 18.882 36.0095 18.882C34.71 18.882 33.661 19.931 33.661 21.2304C33.661 22.5299 34.71 23.5789 36.0095 23.5789C37.309 23.5789 38.3579 22.5299 38.3579 21.2304ZM36.0095 40.0181C37.6847 40.0181 38.9529 38.2567 38.0683 36.4876C37.7082 35.7674 36.9489 35.3212 36.1426 35.3212C34.8744 35.3212 33.7315 36.2762 33.661 37.5444C33.5906 38.8986 34.6709 40.0181 36.0095 40.0181ZM14.0984 21.5436C13.981 19.6648 14.9752 17.9974 16.486 17.1441C17.2532 16.7136 17.762 15.9386 17.762 15.054V10.8816C17.762 10.0205 17.2767 9.26116 16.5408 8.82278C15.0769 7.95385 14.1219 6.3021 14.255 4.44683C14.4194 2.161 16.3138 0.266578 18.5996 0.102186C20.4549 -0.0308926 22.0988 0.924145 22.9756 2.38801C23.4139 3.12386 24.1733 3.60921 25.0344 3.60921H29.2929C30.154 3.60921 30.9133 3.12386 31.3517 2.38801C32.2128 0.931973 33.8646 -0.0230644 35.7198 0.110015C38.0996 0.282235 40.0332 2.33322 40.0723 4.72081C40.1115 7.34325 37.99 9.48817 35.3754 9.48817C33.661 9.48817 32.158 8.56445 31.3439 7.18669C30.9133 6.45867 30.1618 5.96549 29.3164 5.96549H25.1205C24.2672 5.96549 23.4374 6.38039 23.0069 7.12406C22.5763 7.86774 21.9971 8.4392 21.2769 8.85409C20.5567 9.26898 20.1183 10.1144 20.1183 10.9677V15.2419C20.1183 16.0717 20.588 16.8075 21.2925 17.2537C22.6155 18.0835 23.4922 19.5552 23.4922 21.2304C23.4922 23.8451 21.3473 25.9665 18.7249 25.9273C16.3216 25.8882 14.2628 23.939 14.1062 21.5357L14.0984 21.5436ZM34.4439 6.9675C36.2522 7.67204 37.9665 6.20034 37.6925 4.43117C37.5438 3.46048 36.761 2.662 35.7981 2.48978C34.3108 2.23145 33.027 3.35871 33.027 4.79909C33.027 5.7463 33.5671 6.63089 34.4439 6.97533V6.9675ZM21.1046 5.72282C21.8092 3.90668 20.3375 2.20014 18.5605 2.47412C17.5898 2.62286 16.7913 3.40568 16.6191 4.36854C16.3608 5.8559 17.4958 7.13972 18.9284 7.13972C19.8678 7.13972 20.7524 6.59958 21.0968 5.72282H21.1046ZM21.089 21.6923C21.4021 20.0406 19.9774 18.6158 18.3256 18.929C17.4097 19.1012 16.6582 19.8527 16.4782 20.7764C16.1651 22.4282 17.5898 23.8529 19.2415 23.5398C20.1574 23.3675 20.9089 22.616 21.089 21.6923ZM27.0854 7.93819C28.9641 7.82077 30.6315 8.81495 31.4848 10.3258C31.9154 11.0929 32.6903 11.6018 33.5749 11.6018H37.7473C38.6084 11.6018 39.3678 11.1164 39.8062 10.3806C40.6751 8.91672 42.3268 7.96168 44.1821 8.09476C46.4679 8.25915 48.3624 10.1536 48.5267 12.4394C48.6598 14.2947 47.7048 15.9386 46.2409 16.8153C45.5051 17.2537 45.0197 18.0131 45.0197 18.8742V23.1327C45.0197 23.9938 45.5051 24.7531 46.2409 25.1915C47.7126 26.0683 48.6677 27.7122 48.5267 29.5753C48.3545 31.955 46.3035 33.8886 43.9159 33.9277C41.2935 33.9669 39.1486 31.8455 39.1486 29.2308C39.1486 27.5165 40.0723 26.0135 41.4501 25.1993C42.1781 24.7688 42.6713 24.0173 42.6713 23.1718V18.9759C42.6713 18.1227 42.2564 17.2929 41.5127 16.8623C40.769 16.4318 40.1976 15.8525 39.7827 15.1323C39.3678 14.4121 38.5223 13.9737 37.6691 13.9737H33.3949C32.5651 13.9737 31.8292 14.4434 31.383 15.1479C30.5532 16.4709 29.0816 17.3477 27.4063 17.3477C24.7917 17.3477 22.6703 15.2027 22.7094 12.5803C22.7486 10.1771 24.6978 8.11824 27.101 7.96168L27.0854 7.93819ZM41.6614 28.2836C40.9569 30.0919 42.4286 31.8063 44.1978 31.5323C45.1685 31.3836 45.9669 30.6008 46.1392 29.6379C46.3975 28.1506 45.2702 26.8667 43.8298 26.8667C42.8905 26.8667 42.0059 27.4069 41.6614 28.2836ZM42.9061 14.9444C44.7223 15.6489 46.4288 14.1773 46.1548 12.4003C46.0061 11.4296 45.2233 10.6311 44.2604 10.4589C42.773 10.2005 41.4892 11.3356 41.4892 12.7682C41.4892 13.7154 42.0294 14.6 42.9061 14.9366V14.9444ZM26.9366 14.9288C28.5884 15.2419 30.0131 13.8172 29.7 12.1654C29.5278 11.2495 28.7763 10.498 27.8525 10.318C26.2008 10.0048 24.7761 11.4296 25.0892 13.0813C25.2614 13.9972 26.0129 14.7487 26.9366 14.9288ZM27.7038 34.5305C25.825 34.6479 24.1576 33.6538 23.3044 32.1429C22.8738 31.3758 22.0988 30.8669 21.2142 30.8669H17.0418C16.1807 30.8669 15.4214 31.3523 14.983 32.0881C14.1141 33.552 12.4623 34.507 10.607 34.374C8.32122 34.2096 6.4268 32.3151 6.26241 30.0293C6.12933 28.174 7.08437 26.5301 8.54824 25.6534C9.28408 25.215 9.76943 24.4557 9.76943 23.5946V19.336C9.76943 18.4749 9.28408 17.7156 8.54824 17.2772C7.07654 16.4005 6.1215 14.7565 6.26241 12.8934C6.43463 10.5137 8.48561 8.5801 10.8732 8.54096C13.4956 8.50182 15.6406 10.6233 15.6406 13.2379C15.6406 14.9522 14.7168 16.4553 13.3391 17.2694C12.6111 17.6999 12.1179 18.4514 12.1179 19.2969V23.4928C12.1179 24.3461 12.5328 25.1758 13.2765 25.6064C14.0201 26.0369 14.5916 26.6162 15.0065 27.3364C15.4214 28.0566 16.2668 28.495 17.1201 28.495H21.3943C22.2241 28.495 22.9599 28.0253 23.4061 27.3208C24.2359 25.9978 25.7076 25.121 27.3828 25.121C29.9974 25.121 32.1189 27.266 32.0797 29.8884C32.0406 32.2917 30.0914 34.3505 27.6881 34.507L27.7038 34.5305ZM13.1277 14.1851C13.8323 12.3768 12.3606 10.6624 10.5914 10.9364C9.6207 11.0851 8.82222 11.8679 8.65 12.8308C8.39167 14.3182 9.51893 15.602 10.9593 15.602C11.8987 15.602 12.7833 15.0618 13.1277 14.1851ZM11.883 27.5243C10.0669 26.8198 8.36036 28.2915 8.63435 30.0685C8.78308 31.0392 9.5659 31.8376 10.5288 32.0098C12.0161 32.2682 13.2999 31.1331 13.2999 29.7005C13.2999 28.7533 12.7598 27.8687 11.883 27.5321V27.5243ZM27.8525 27.54C26.2008 27.2268 24.7761 28.6516 25.0892 30.3033C25.2614 31.2192 26.0129 31.9707 26.9366 32.1508C28.5884 32.4639 30.0131 31.0392 29.7 29.3874C29.5278 28.4715 28.7763 27.72 27.8525 27.54Z" fill="white"/>
</mask>
<g mask="url(#mask0_1489_818)">
<path d="M0.0938606 0H54.8911V42.4679H0.0938606V0Z" fill="url(#paint0_linear_1489_818)"/>
</g>
</g>
<path d="M173.936 36.0981L175.169 34.5912C175.778 35.063 176.395 35.4284 177.019 35.6871C177.658 35.9307 178.305 36.0524 178.959 36.0524C179.781 36.0524 180.451 35.8926 180.969 35.573C181.486 35.2533 181.745 34.8347 181.745 34.3172C181.745 33.9062 181.593 33.5789 181.288 33.3354C180.984 33.0919 180.512 32.9244 179.873 32.8331L177.772 32.5363C176.63 32.3688 175.763 32.0187 175.169 31.486C174.591 30.938 174.302 30.215 174.302 29.3169C174.302 28.2667 174.72 27.4219 175.557 26.7826C176.395 26.128 177.49 25.8008 178.845 25.8008C179.698 25.8008 180.504 25.9226 181.265 26.1661C182.042 26.4096 182.795 26.7826 183.526 27.2849L182.361 28.7918C181.722 28.3656 181.098 28.0612 180.489 27.8785C179.895 27.6806 179.294 27.5817 178.685 27.5817C177.985 27.5817 177.422 27.7263 176.996 28.0155C176.57 28.3047 176.356 28.6852 176.356 29.1571C176.356 29.5833 176.501 29.9106 176.79 30.1389C177.095 30.352 177.589 30.5118 178.274 30.6184L180.375 30.9152C181.517 31.0826 182.384 31.4403 182.978 31.9883C183.587 32.5363 183.891 33.2593 183.891 34.1574C183.891 34.6749 183.762 35.162 183.503 35.6186C183.259 36.06 182.917 36.4406 182.476 36.7602C182.049 37.0799 181.539 37.3386 180.946 37.5365C180.352 37.7192 179.713 37.8105 179.028 37.8105C178.023 37.8105 177.08 37.6659 176.197 37.3767C175.329 37.0875 174.576 36.6613 173.936 36.0981Z" fill="#161616"/>
<path d="M168.562 35.801C169.141 35.801 169.689 35.6869 170.206 35.4586C170.724 35.215 171.218 34.8573 171.69 34.3855L173.06 35.8695C172.451 36.4784 171.751 36.9579 170.96 37.308C170.168 37.6428 169.338 37.8103 168.471 37.8103C167.634 37.8103 166.85 37.6581 166.119 37.3536C165.388 37.034 164.757 36.6078 164.224 36.075C163.691 35.5423 163.265 34.9106 162.945 34.18C162.641 33.4341 162.489 32.635 162.489 31.7826C162.489 30.9454 162.641 30.1615 162.945 29.4309C163.265 28.685 163.691 28.0457 164.224 27.513C164.757 26.965 165.388 26.5388 166.119 26.2344C166.85 25.9147 167.634 25.7549 168.471 25.7549C169.338 25.7549 170.183 25.9299 171.005 26.28C171.827 26.6149 172.543 27.0868 173.151 27.6956L171.713 29.2482C171.272 28.7763 170.777 28.4186 170.229 28.1751C169.681 27.9163 169.11 27.7869 168.516 27.7869C167.466 27.7869 166.576 28.1751 165.845 28.9514C165.114 29.7277 164.749 30.6714 164.749 31.7826C164.749 32.9242 165.114 33.8831 165.845 34.6594C166.591 35.4205 167.497 35.801 168.562 35.801Z" fill="#161616"/>
<path d="M159.184 24.1105C158.803 24.1105 158.476 23.9735 158.202 23.6995C157.928 23.4103 157.791 23.0754 157.791 22.6949C157.791 22.3144 157.928 21.9871 158.202 21.7131C158.476 21.4239 158.803 21.2793 159.184 21.2793C159.564 21.2793 159.891 21.4239 160.165 21.7131C160.455 21.9871 160.599 22.3144 160.599 22.6949C160.599 23.0754 160.455 23.4103 160.165 23.6995C159.891 23.9735 159.564 24.1105 159.184 24.1105ZM160.325 25.9827V37.6043H158.042V25.9827H160.325Z" fill="#161616"/>
<path d="M150.674 34.7277V27.9009H148.208V25.983H150.674V23.0148L152.935 22.4668V25.983H156.36V27.9009H152.935V34.2025C152.935 34.7962 153.064 35.2148 153.323 35.4583C153.597 35.7019 154.038 35.8236 154.647 35.8236C154.967 35.8236 155.248 35.8084 155.492 35.778C155.751 35.7323 156.025 35.6562 156.314 35.5496V37.4675C156.01 37.5741 155.652 37.6578 155.241 37.7187C154.845 37.7796 154.48 37.81 154.145 37.81C153.018 37.81 152.158 37.5513 151.565 37.0337C150.971 36.501 150.674 35.7323 150.674 34.7277Z" fill="#161616"/>
<path d="M137.681 36.0981L138.914 34.5912C139.523 35.063 140.14 35.4284 140.764 35.6871C141.403 35.9307 142.05 36.0524 142.704 36.0524C143.526 36.0524 144.196 35.8926 144.714 35.573C145.231 35.2533 145.49 34.8347 145.49 34.3172C145.49 33.9062 145.338 33.5789 145.033 33.3354C144.729 33.0919 144.257 32.9244 143.618 32.8331L141.517 32.5363C140.376 32.3688 139.508 32.0187 138.914 31.486C138.336 30.938 138.047 30.215 138.047 29.3169C138.047 28.2667 138.465 27.4219 139.302 26.7826C140.14 26.128 141.236 25.8008 142.59 25.8008C143.443 25.8008 144.249 25.9226 145.011 26.1661C145.787 26.4096 146.54 26.7826 147.271 27.2849L146.106 28.7918C145.467 28.3656 144.843 28.0612 144.234 27.8785C143.641 27.6806 143.039 27.5817 142.43 27.5817C141.73 27.5817 141.167 27.7263 140.741 28.0155C140.315 28.3047 140.102 28.6852 140.102 29.1571C140.102 29.5833 140.246 29.9106 140.535 30.1389C140.84 30.352 141.335 30.5118 142.02 30.6184L144.12 30.9152C145.262 31.0826 146.129 31.4403 146.723 31.9883C147.332 32.5363 147.636 33.2593 147.636 34.1574C147.636 34.6749 147.507 35.162 147.248 35.6186C147.005 36.06 146.662 36.4406 146.221 36.7602C145.794 37.0799 145.285 37.3386 144.691 37.5365C144.097 37.7192 143.458 37.8105 142.773 37.8105C141.768 37.8105 140.825 37.6659 139.942 37.3767C139.074 37.0875 138.321 36.6613 137.681 36.0981Z" fill="#161616"/>
<path d="M124.54 31.7826C124.54 30.9454 124.692 30.1615 124.996 29.4309C125.316 28.685 125.75 28.0457 126.298 27.513C126.846 26.965 127.485 26.5388 128.216 26.2344C128.961 25.9147 129.753 25.7549 130.59 25.7549C131.427 25.7549 132.211 25.9147 132.942 26.2344C133.688 26.5388 134.327 26.965 134.86 27.513C135.408 28.0457 135.834 28.685 136.138 29.4309C136.458 30.1615 136.618 30.9454 136.618 31.7826C136.618 32.635 136.458 33.4341 136.138 34.18C135.834 34.9106 135.408 35.5499 134.86 36.0979C134.327 36.6306 133.688 37.0568 132.942 37.3765C132.211 37.6809 131.427 37.8331 130.59 37.8331C129.753 37.8331 128.961 37.6809 128.216 37.3765C127.485 37.0568 126.846 36.6306 126.298 36.0979C125.75 35.5499 125.316 34.9106 124.996 34.18C124.692 33.4341 124.54 32.635 124.54 31.7826ZM130.59 35.8239C131.64 35.8239 132.531 35.4357 133.261 34.6594C134.007 33.8679 134.38 32.909 134.38 31.7826C134.38 30.6562 134.007 29.7049 133.261 28.9286C132.531 28.1523 131.64 27.7641 130.59 27.7641C129.54 27.7641 128.642 28.1523 127.896 28.9286C127.15 29.7049 126.777 30.6562 126.777 31.7826C126.777 32.909 127.142 33.8679 127.873 34.6594C128.619 35.4357 129.525 35.8239 130.59 35.8239Z" fill="#161616"/>
<path d="M112.11 37.6048V25.9832H114.393V27.1476C114.85 26.691 115.367 26.3485 115.946 26.1202C116.539 25.8767 117.186 25.7549 117.886 25.7549C119.211 25.7549 120.299 26.1811 121.151 27.0335C122.004 27.8707 122.43 28.959 122.43 30.2985V37.6048H120.147V30.6866C120.147 29.7734 119.88 29.0579 119.348 28.5404C118.83 28.0077 118.138 27.7413 117.27 27.7413C116.661 27.7413 116.105 27.8707 115.603 28.1294C115.116 28.3882 114.713 28.7611 114.393 29.2482V37.6048H112.11Z" fill="#161616"/>
<path d="M103.672 37.6958C102.866 37.6958 102.105 37.5435 101.389 37.2391C100.674 36.9195 100.05 36.4933 99.517 35.9605C98.9994 35.4278 98.5885 34.7961 98.284 34.0654C97.9796 33.3348 97.8274 32.5585 97.8274 31.7365C97.8274 30.9146 97.9796 30.1383 98.284 29.4077C98.5885 28.677 98.9994 28.0453 99.517 27.5126C100.05 26.9798 100.674 26.5612 101.389 26.2568C102.12 25.9372 102.896 25.7773 103.718 25.7773C104.342 25.7773 104.943 25.8763 105.522 26.0742C106.115 26.272 106.663 26.5612 107.166 26.9418V25.9828H109.426V37.7642C109.426 39.2712 108.962 40.428 108.033 41.2347C107.12 42.0567 105.811 42.4677 104.106 42.4677C103.269 42.4677 102.439 42.3687 101.618 42.1709C100.811 41.973 100.08 41.6914 99.4256 41.3261L100.316 39.5452C100.971 39.88 101.602 40.1312 102.211 40.2986C102.82 40.4661 103.429 40.5498 104.038 40.5498C105.042 40.5498 105.811 40.3138 106.344 39.842C106.877 39.3701 107.143 38.6775 107.143 37.7642V36.4628C106.656 36.8586 106.115 37.163 105.522 37.3761C104.928 37.5892 104.312 37.6958 103.672 37.6958ZM100.065 31.7365C100.065 32.8477 100.438 33.7914 101.184 34.5677C101.93 35.3288 102.85 35.7093 103.946 35.7093C104.601 35.7093 105.202 35.5952 105.75 35.3669C106.298 35.1233 106.762 34.7884 107.143 34.3622V29.1108C106.778 28.6846 106.313 28.3574 105.75 28.1291C105.202 27.8855 104.601 27.7637 103.946 27.7637C102.85 27.7637 101.93 28.1519 101.184 28.9282C100.438 29.6893 100.065 30.6254 100.065 31.7365Z" fill="#161616"/>
<path d="M89.8766 37.8103C88.6132 37.8103 87.5857 37.483 86.7942 36.8285C86.0027 36.174 85.6069 35.3216 85.6069 34.2713C85.6069 33.1753 86.0255 32.3153 86.8627 31.6913C87.6999 31.052 88.8491 30.7323 90.3104 30.7323C90.8736 30.7323 91.4215 30.7932 91.9543 30.915C92.487 31.0215 92.997 31.1737 93.484 31.3716V30.1387C93.484 29.3167 93.2405 28.7002 92.7534 28.2893C92.2663 27.8783 91.5661 27.6728 90.6528 27.6728C90.1201 27.6728 89.5645 27.7565 88.9861 27.9239C88.4077 28.0762 87.7608 28.3197 87.0454 28.6546L86.2006 26.9422C87.0682 26.5312 87.8902 26.2344 88.6664 26.0517C89.4427 25.8538 90.2114 25.7549 90.9725 25.7549C92.4794 25.7549 93.6439 26.1202 94.4658 26.8508C95.303 27.5662 95.7216 28.5861 95.7216 29.9103V37.6048H93.484V36.6002C92.9665 37.0112 92.4109 37.3156 91.8173 37.5135C91.2237 37.7113 90.5767 37.8103 89.8766 37.8103ZM87.7988 34.2256C87.7988 34.7888 88.0348 35.2455 88.5066 35.5956C88.9937 35.9457 89.6254 36.1207 90.4017 36.1207C91.0106 36.1207 91.5737 36.0294 92.0913 35.8467C92.6088 35.6641 93.0731 35.3901 93.484 35.0248V33.0155C93.0426 32.772 92.5784 32.5969 92.0913 32.4904C91.6042 32.3686 91.0714 32.3077 90.493 32.3077C89.6711 32.3077 89.0165 32.4828 88.5295 32.8329C88.0424 33.183 87.7988 33.6472 87.7988 34.2256Z" fill="#161616"/>
<path d="M82.3701 24.1105C81.9895 24.1105 81.6623 23.9735 81.3883 23.6995C81.1143 23.4103 80.9773 23.0754 80.9773 22.6949C80.9773 22.3144 81.1143 21.9871 81.3883 21.7131C81.6623 21.4239 81.9895 21.2793 82.3701 21.2793C82.7506 21.2793 83.0779 21.4239 83.3518 21.7131C83.6411 21.9871 83.7857 22.3144 83.7857 22.6949C83.7857 23.0754 83.6411 23.4103 83.3518 23.6995C83.0779 23.9735 82.7506 24.1105 82.3701 24.1105ZM83.5117 25.9827V37.6043H81.2284V25.9827H83.5117Z" fill="#161616"/>
<path d="M64.8911 37.6046V21.6221H70.5307C71.7332 21.6221 72.8443 21.8276 73.8642 22.2385C74.8992 22.6343 75.7897 23.1899 76.5355 23.9053C77.2966 24.6055 77.8902 25.4503 78.3164 26.4397C78.7426 27.4291 78.9557 28.4946 78.9557 29.6362C78.9557 30.7778 78.7426 31.8357 78.3164 32.8098C77.8902 33.784 77.3042 34.6288 76.5584 35.3442C75.8125 36.0444 74.9221 36.6 73.887 37.011C72.8519 37.4067 71.7332 37.6046 70.5307 37.6046H64.8911ZM70.5763 23.7683H67.2885V35.4584H70.5763C71.3983 35.4584 72.1746 35.3138 72.9052 35.0246C73.6358 34.7201 74.2599 34.3092 74.7775 33.7916C75.3102 33.2589 75.7288 32.6424 76.0332 31.9422C76.3377 31.2268 76.4899 30.4581 76.4899 29.6362C76.4899 28.8142 76.3377 28.0455 76.0332 27.3301C75.7288 26.5995 75.3102 25.9754 74.7775 25.4579C74.2599 24.9251 73.6358 24.5141 72.9052 24.2249C72.1746 23.9205 71.3983 23.7683 70.5763 23.7683Z" fill="#161616"/>
<path d="M115.173 16.4848V15.3889C114.686 15.7999 114.138 16.1195 113.529 16.3478C112.92 16.5609 112.281 16.6675 111.611 16.6675C110.789 16.6675 110.02 16.5153 109.305 16.2109C108.589 15.8912 107.965 15.465 107.433 14.9323C106.915 14.3995 106.504 13.7678 106.2 13.0372C105.895 12.2913 105.743 11.4998 105.743 10.6626C105.743 9.82545 105.895 9.04155 106.2 8.31092C106.504 7.58029 106.915 6.9486 107.433 6.41585C107.965 5.88309 108.597 5.4645 109.328 5.16008C110.058 4.84042 110.834 4.6806 111.656 4.6806C112.296 4.6806 112.912 4.77954 113.506 4.97742C114.099 5.1753 114.647 5.45689 115.15 5.82221V0.502308L117.433 0V16.4848H115.173ZM107.98 10.6398C107.98 11.7814 108.361 12.7404 109.122 13.5167C109.883 14.293 110.819 14.6811 111.93 14.6811C112.585 14.6811 113.186 14.5593 113.734 14.3158C114.297 14.0722 114.769 13.7298 115.15 13.2883V8.0141C114.769 7.5879 114.297 7.25303 113.734 7.00948C113.171 6.76594 112.57 6.64417 111.93 6.64417C110.819 6.64417 109.883 7.0247 109.122 7.78578C108.361 8.54685 107.98 9.49819 107.98 10.6398Z" fill="#161616"/>
<path d="M97.7921 16.6902C96.5287 16.6902 95.5013 16.3629 94.7097 15.7084C93.9182 15.0539 93.5225 14.2015 93.5225 13.1512C93.5225 12.0552 93.9411 11.1952 94.7782 10.5711C95.6154 9.93183 96.7646 9.61218 98.2259 9.61218C98.7891 9.61218 99.3371 9.67307 99.8698 9.79484C100.403 9.90139 100.912 10.0536 101.4 10.2515V9.01855C101.4 8.19659 101.156 7.58012 100.669 7.16914C100.182 6.75816 99.4817 6.55267 98.5684 6.55267C98.0356 6.55267 97.48 6.63639 96.9016 6.80382C96.3232 6.95604 95.6763 7.19958 94.9609 7.53445L94.1161 5.82204C94.9837 5.41106 95.8057 5.11424 96.582 4.93158C97.3583 4.73371 98.127 4.63477 98.888 4.63477C100.395 4.63477 101.559 5.00008 102.381 5.73071C103.219 6.44612 103.637 7.46596 103.637 8.79023V16.4847H101.4V15.4801C100.882 15.891 100.326 16.1955 99.7328 16.3933C99.1392 16.5912 98.4923 16.6902 97.7921 16.6902ZM95.7144 13.1055C95.7144 13.6687 95.9503 14.1253 96.4222 14.4754C96.9092 14.8255 97.5409 15.0006 98.3172 15.0006C98.9261 15.0006 99.4893 14.9093 100.007 14.7266C100.524 14.5439 100.989 14.27 101.4 13.9046V11.8954C100.958 11.6519 100.494 11.4768 100.007 11.3703C99.5197 11.2485 98.987 11.1876 98.4086 11.1876C97.5866 11.1876 96.9321 11.3627 96.445 11.7127C95.9579 12.0628 95.7144 12.5271 95.7144 13.1055Z" fill="#161616"/>
<path d="M91.2306 15.1606C90.5609 15.6782 89.8607 16.0663 89.13 16.3251C88.3994 16.5686 87.6003 16.6904 86.7327 16.6904C85.8803 16.6904 85.0811 16.5382 84.3353 16.2338C83.5894 15.9141 82.9425 15.4879 82.3946 14.9551C81.8466 14.4224 81.4128 13.7907 81.0931 13.0601C80.7887 12.3142 80.6365 11.5151 80.6365 10.6627C80.6365 9.82552 80.7887 9.04161 81.0931 8.31098C81.3975 7.58035 81.8085 6.94866 82.3261 6.41591C82.8436 5.88316 83.4601 5.46457 84.1755 5.16014C84.8909 4.84049 85.6519 4.68066 86.4587 4.68066C87.2502 4.68066 87.9884 4.84049 88.6734 5.16014C89.3736 5.46457 89.9672 5.89077 90.4543 6.43874C90.9566 6.97149 91.3524 7.61079 91.6416 8.35665C91.9308 9.1025 92.0754 9.90162 92.0754 10.754V11.4162H82.8969C83.0491 12.3751 83.4905 13.1742 84.2211 13.8135C84.9518 14.4376 85.8194 14.7497 86.824 14.7497C87.3872 14.7497 87.9276 14.6583 88.4451 14.4757C88.9626 14.293 89.404 14.0419 89.7694 13.7222L91.2306 15.1606ZM86.413 6.59857C85.5454 6.59857 84.7843 6.88777 84.1298 7.46619C83.4905 8.04461 83.0871 8.79046 82.9197 9.70374H89.815C89.6476 8.8209 89.2442 8.08266 88.6049 7.48902C87.9808 6.89539 87.2502 6.59857 86.413 6.59857Z" fill="#161616"/>
<path d="M64.8911 16.4845V0.501953H67.2885V7.35161H75.7821V0.501953H78.1795V16.4845H75.7821V9.52067H67.2885V16.4845H64.8911Z" fill="#161616"/>
</g>
<defs>
<linearGradient id="paint0_linear_1489_818" x1="11.4447" y1="-6.55218" x2="43.5403" y2="49.0201" gradientUnits="userSpaceOnUse">
<stop stop-color="#22FFCC" stop-opacity="0.992157"/>
<stop offset="1" stop-color="#6276B7"/>
</linearGradient>
<clipPath id="clip0_1489_818">
<rect width="183.891" height="42.4679" rx="10" fill="white"/>
</clipPath>
<clipPath id="clip1_1489_818">
<rect width="54.8912" height="42.4679" fill="white" transform="matrix(-1 0 0 1 54.8911 0)"/>
</clipPath>
</defs>
</svg>
